<?xml version="1.0" encoding="utf-8"?>
<!-- Generator: Adobe Illustrator 23.0.2, SVG Export Plug-In . SVG Version: 6.00 Build 0)  -->
<svg version="1.1" id="Layer_1" xmlns="http://www.w3.org/2000/svg" xmlns:xlink="http://www.w3.org/1999/xlink" x="0px" y="0px"
	 viewBox="0 0 150 70" style="enable-background:new 0 0 150 70;" xml:space="preserve">
<style type="text/css">
	.st0{fill:#FF0012;}
	.st1{fill:#020081;}
</style>
<g>
	<path class="st0" d="M25.47694,16.02913c1.25886,0.23312,2.54102,0.36134,3.76491,0.72268
		c6.3176,1.83001,10.59538,5.88632,12.90328,12.02908c0.11656,0.32637,0.19815,0.6644,0.32637,1.08401
		c-1.66682-0.48956-3.24039-0.50121-4.77899,0.06993c-0.38465,0.13987-0.39631-0.20981-0.48956-0.41962
		c-1.28217-2.90237-3.28702-5.16364-6.03785-6.74887c-7.98442-4.55752-18.24176-0.20981-20.52636,8.70709
		c-2.05147,7.99607,3.14714,16.12036,11.28309,17.39087c5.54829,0.87421,10.09416-1.0607,13.59098-5.46671
		c0.10491-0.13987,0.20981-0.27975,0.31472-0.41961c0.02331-0.02331,0.05828-0.04663,0.13987-0.09326
		c1.41038,0.94414,2.99561,1.38708,4.81396,1.28217c-0.10491,0.20982-0.16319,0.36134-0.25644,0.50122
		c-2.89071,4.70906-7.01696,7.71632-12.41372,8.8936c-9.73283,2.1214-19.65215-3.98637-22.18152-13.62596
		c-2.62262-9.9776,2.92568-20.01349,12.77506-23.06738c1.17726-0.36134,2.42446-0.50121,3.6367-0.73433
		c0.20981-0.04663,0.41961-0.06993,0.62943-0.11656C23.81012,16.02913,24.64936,16.02913,25.47694,16.02913z"/>
	<path class="st1" d="M22.1433,37.25484c0,1.16562-0.02331,2.22631,0.01165,3.28701c0.02331,0.57115,0.48956,0.75765,0.9558,0.7693
		c1.02573,0.03498,2.05147,0.02331,3.07721,0.01165c0.54784-0.01165,0.81593-0.37299,0.82758-0.88586
		c0.02331-0.68771,0.01165-1.37542,0.01165-2.10975c1.37542,0,2.70421,0,4.033,0c0,1.28217,0.10491,2.56434-0.04663,3.81153
		c-0.06993,0.59446-0.53618,1.22389-0.97911,1.69013c-0.75765,0.79262-1.77173,1.22389-2.85574,1.2472
		c-1.80669,0.04663-3.62504,0.06993-5.43173-0.08159c-2.28459-0.19815-3.54345-1.71344-3.54345-3.99804
		c0-3.82319,0-7.64639,0-11.46959c0-1.71345,0.57115-2.70421,2.17969-3.2637c2.89071-0.99077,5.82804-1.14229,8.70709,0.05828
		c1.32879,0.54784,2.07478,1.59688,2.07478,3.08886c0,2.5993,0,5.19861,0,7.8562
		C28.1695,37.25484,25.1972,37.25484,22.1433,37.25484z M22.13165,33.60649c1.67848,0,3.2637,0,4.87224,0
		c0-1.11898,0.03497-2.19134-0.01165-3.2637c-0.02331-0.50121-0.38465-0.86255-0.88586-0.88586
		c-1.00242-0.04663-2.00485-0.03497-3.00727,0.02331c-0.4779,0.02331-0.9558,0.27975-0.96745,0.85089
		C22.10834,31.40349,22.13165,32.48751,22.13165,33.60649z"/>
	<g>
		<path class="st1" d="M66.89099,42.57002c-0.30305,1.23554-1.18892,1.6435-2.31956,1.77172
			c-1.13065,0.12821-2.23797,0.10491-3.33364-0.25643c-0.78096-0.25643-1.29382-0.75764-1.45701-1.55027
			c-0.11656-0.57115-0.23312-1.16561-0.23312-1.74841c-0.02332-2.9723-0.02332-5.95625,0-8.92855
			c0-0.45459,0.09325-0.89752,0.15153-1.3521c0.15153-1.18892,0.90917-1.88829,2.00484-2.00485
			c1.17726-0.13988,2.3895-0.08159,3.56676,0.02331c0.86255,0.08159,1.34045,0.73433,1.58522,1.58522c0-2.40115,0-4.80231,0-7.2734
			c1.08401,0,2.0981-0.01165,3.12383,0.01165c0.09325,0,0.22147,0.17484,0.26808,0.2914
			c0.04663,0.09325,0.01166,0.23312,0.01166,0.34968c0,6.70225,0,13.40449,0,20.10674c0,0.19815,0,0.38465,0,0.61777
			c-1.15395,0-2.23797,0-3.36861,0C66.89099,43.65403,66.89099,43.11785,66.89099,42.57002z M66.87933,36.36898
			C66.86768,36.36898,66.86768,36.36898,66.87933,36.36898c0-1.23554,0.01165-2.48274-0.01165-3.71829
			c-0.01166-0.75764-0.25644-1.07236-0.99077-1.15395c-0.61777-0.06993-1.25886-0.08159-1.87663-0.01165
			c-0.78096,0.08159-1.0374,0.41961-1.0607,1.21223c-0.01165,0.59446,0,1.17726,0,1.77173c0,1.77172,0,3.54345,0,5.31517
			c0,1.13063,0.22147,1.38708,1.3521,1.50364c0.48956,0.04663,0.97912,0.0233,1.46867-0.03497
			c0.86255-0.10491,1.10733-0.39631,1.11898-1.28217C66.87933,38.77014,66.87933,37.56956,66.87933,36.36898z"/>
		<path class="st1" d="M124.62354,42.74486c0,1.78339,0,3.56676,0,5.40842c-1.11898,0-2.21465,0-3.34529,0
			c0-6.53906,0-13.06646,0-19.64049c1.09567,0,2.16803,0,3.31033,0c0,0.48956,0,0.99077,0,1.48032
			c0.40796-1.28217,1.45701-1.5386,2.52936-1.6202c0.87421-0.05828,1.78339-0.03497,2.64593,0.11656
			c1.48032,0.25644,2.14471,1.18892,2.14471,2.92567c0.02332,2.85574,0.01166,5.71148,0,8.57888
			c0,0.53618,0.01166,1.0607-0.01164,1.59688c-0.09326,1.58522-0.81593,2.48275-2.37785,2.6809
			c-1.02574,0.12822-2.07478,0.08159-3.11216-0.01165C125.55603,44.1669,124.92661,43.63072,124.62354,42.74486z
			 M124.62354,36.34567c0,1.23554-0.01166,2.48275,0,3.71829c0.01165,0.73434,0.3147,1.11898,1.03739,1.17726
			c0.61778,0.05828,1.25887,0.04663,1.87663-0.01165c0.69936-0.06993,1.00242-0.37299,1.01408-1.07235
			c0.0233-2.54102,0.0233-5.08205,0-7.62308c0-0.65274-0.30305-0.96745-0.96746-1.04905
			c-0.60611-0.06993-1.22389-0.09325-1.81834-0.03497c-0.88586,0.09325-1.1423,0.43128-1.1423,1.3288
			C124.62354,33.97949,124.62354,35.15675,124.62354,36.34567z"/>
		<path class="st1" d="M144.60207,37.80268c-2.45943,0-4.83728,0-7.23842,0c0,0.93249-0.05829,1.81835,0.03497,2.6809
			c0.0233,0.26809,0.45459,0.66439,0.73433,0.69936c0.746,0.09325,1.52695,0.08158,2.28459,0.0233
			c0.62943-0.04663,0.80428-0.57115,0.83923-1.11898c0.0233-0.43127,0-0.86255,0-1.31714c1.13063,0,2.203,0,3.46185,0
			c-0.11656,1.23554-0.17485,2.44778-0.34969,3.63669c-0.1049,0.72267-0.73434,1.13063-1.3521,1.37542
			c-0.62944,0.25643-1.30548,0.4779-1.98154,0.53617c-1.60855,0.16319-3.22873,0.22147-4.80231-0.25643
			c-1.58522-0.47789-2.27293-1.30547-2.28458-2.94899c-0.03497-3.17044-0.03497-6.34091,0-9.52302
			c0.01164-1.63185,0.66438-2.4944,2.2263-2.92567c2.06313-0.5828,4.17288-0.5828,6.23601,0.01165
			c1.51529,0.43128,2.13306,1.20057,2.17967,2.77415C144.6487,33.54821,144.60207,35.63465,144.60207,37.80268z M141.24512,34.91198
			c0-0.85089,0.02332-1.63185-0.01164-2.41281c-0.02332-0.47789-0.24478-0.92083-0.78096-0.96745
			c-0.78094-0.05828-1.56192-0.08159-2.33121,0.01165c-0.27975,0.03497-0.69937,0.43128-0.72267,0.69936
			c-0.09326,0.86255-0.03497,1.74841-0.03497,2.65759C138.64581,34.91198,139.90468,34.91198,141.24512,34.91198z"/>
		<path class="st1" d="M58.12562,37.81433c-2.47109,0-4.86059,0-7.2734,0c0,0.89751-0.03497,1.74841,0.01165,2.58764
			c0.02332,0.45459,0.33803,0.79262,0.80428,0.81593c0.75764,0.04663,1.52694,0.04663,2.28459-0.01165
			c0.46624-0.03497,0.73433-0.37299,0.7693-0.83923c0.04663-0.51287,0.05828-1.01407,0.08159-1.57357c1.08401,0,2.15638,0,3.29867,0
			c0,1.27052,0.24478,2.59931-0.30305,3.79988c-0.23312,0.50122-0.79261,0.93249-1.30548,1.20058
			c-0.59446,0.30306-1.29382,0.4779-1.96988,0.54783c-1.60854,0.15154-3.22874,0.22147-4.80231-0.2681
			c-1.56192-0.48955-2.21465-1.23554-2.23797-2.85574c-0.04663-3.19377-0.05828-6.38753-0.01165-9.5813
			c0.02332-1.77172,0.71102-2.62262,2.41281-3.01893c1.99319-0.4779,4.033-0.50121,6.01453,0.06993
			c1.57357,0.45459,2.21465,1.36376,2.22631,2.99561C58.13728,33.68809,58.12562,35.69294,58.12562,37.81433z M54.72205,34.91198
			c0-0.88586,0.02331-1.71344-0.01165-2.52937c-0.01165-0.48956-0.31472-0.82758-0.80427-0.86255
			c-0.73433-0.04663-1.48032-0.04663-2.22631,0c-0.50121,0.02331-0.80427,0.38465-0.82758,0.85089
			c-0.04663,0.83924-0.01165,1.66682-0.01165,2.54102C52.13439,34.91198,53.40491,34.91198,54.72205,34.91198z"/>
		<path class="st1" d="M108.85287,36.33402c0-1.4337,0.01166-2.87905,0-4.31275c-0.01165-2.14472,0.69936-3.1588,3.21708-3.56676
			c1.63185-0.26809,3.29868-0.27975,4.93053,0.11656c1.81834,0.45459,2.54103,1.37542,2.55268,3.24039
			c0.02331,3.03058,0.01165,6.06117,0,9.1034c-0.01165,1.84167-0.67606,2.75083-2.43613,3.19377
			c-1.96988,0.50122-3.98637,0.50122-5.95625-0.04663c-1.58522-0.44294-2.24963-1.30547-2.28458-2.94899
			c-0.03497-1.59688-0.01166-3.19377-0.01166-4.79065C108.86453,36.33402,108.85287,36.33402,108.85287,36.33402z M112.2681,36.3107
			c0,1.28217-0.01165,2.56433,0,3.83485c0,0.66439,0.27975,1.01407,0.92084,1.07235
			c0.64108,0.05828,1.29382,0.06993,1.93491,0.01165c0.73434-0.05828,1.03739-0.38465,1.04904-1.10733
			c0.02331-2.51771,0.02331-5.04708,0-7.5648c-0.01165-0.69937-0.27975-1.00242-1.00242-1.08401
			c-0.64108-0.06993-1.29382-0.06993-1.93491,0c-0.73434,0.08159-0.96746,0.40796-0.96746,1.15395
			C112.25645,33.86293,112.2681,35.08682,112.2681,36.3107z"/>
		<path class="st1" d="M84.36346,38.77014c1.11898,0,2.19135,0,3.35696,0c0,0.43127-0.01165,0.86255,0,1.28217
			c0.02331,0.74599,0.31471,1.11898,1.03739,1.18892c0.67606,0.05828,1.37543,0.0233,2.05147-0.02331
			c0.43127-0.03497,0.73434-0.31471,0.79262-0.75764c0.23312-1.66682-0.12821-2.21466-1.46866-2.50606
			c-1.01408-0.22147-2.02816-0.50121-3.03058-0.75764c-1.67848-0.44293-2.69255-1.67848-2.73918-3.41523
			c-0.02331-1.00242,0.03497-2.00485,0.1049-2.99561c0.05828-0.93249,0.67606-1.50364,1.46867-1.84166
			c0.59446-0.24477,1.22389-0.46624,1.86497-0.52452c1.69013-0.16319,3.38026-0.25644,5.03542,0.26809
			c1.50364,0.48956,2.16803,1.38708,2.17969,2.9723c0.01165,0.74599,0,1.49197,0,2.27293c-1.11899,0-2.19135,0-3.35696,0
			c0-0.44293,0.01165-0.87421,0-1.29382c-0.03498-0.73433-0.27975-1.07236-1.00243-1.14229
			c-0.69936-0.05828-1.41038-0.01165-2.10974,0.02331c-0.17484,0.01165-0.37299,0.12821-0.51287,0.26809
			c-0.73434,0.73433-0.32638,2.51771,0.67606,2.82077c1.1656,0.34968,2.35452,0.62943,3.5318,0.93248
			c1.71343,0.44293,2.73917,1.67848,2.76248,3.43855c0.01166,1.00242-0.04662,2.00484-0.11656,3.00727
			c-0.05828,0.82758-0.57115,1.39873-1.28217,1.71344c-0.67606,0.2914-1.39873,0.5595-2.13307,0.64109
			c-1.66682,0.18649-3.34528,0.24477-4.97713-0.2914c-1.46867-0.47789-2.0981-1.3288-2.14472-2.87904
			C84.35179,40.36702,84.36346,39.58607,84.36346,38.77014z"/>
		<path class="st1" d="M71.54176,28.50113c1.13065,0,2.203,0,3.35695,0c0,0.24477,0,0.4779,0,0.69936
			c0,3.53179,0,7.05193,0,10.58372c0,1.10733,0.23312,1.39873,1.3521,1.49199c0.55949,0.04663,1.1423-0.01165,1.70178-0.05828
			c0.54783-0.05828,0.82758-0.40796,0.86256-0.95579c0.01165-0.25643,0.02331-0.51287,0.02331-0.7693
			c0-3.42689,0-6.86543,0-10.29232c0-0.20981,0-0.43128,0-0.68771c1.13063,0,2.2263,0,3.35696,0c0,5.22192,0,10.43218,0,15.70074
			c-1.08402,0-2.16803,0-3.33364,0c0-0.52452,0-1.0374,0-1.56192c-0.45459,1.52694-1.69013,1.69013-2.96065,1.73676
			c-0.6644,0.0233-1.34045-0.02331-2.00484-0.11656c-1.37541-0.19815-2.05147-0.87421-2.29625-2.23796
			c-0.05828-0.34968-0.1049-0.69937-0.1049-1.0607c-0.01166-4.02135,0-8.0427,0-12.06404
			C71.51845,28.80419,71.53011,28.68763,71.54176,28.50113z"/>
		<path class="st1" d="M103.72421,38.37383c1.0607,0,2.1214,0,3.29868,0c-0.08159,1.44535,0.24477,2.91402-0.34969,4.30109
			c-0.32638,0.75765-1.04905,1.1423-1.78339,1.3521c-2.1214,0.60611-4.27777,0.61778-6.41084,0.01165
			c-1.45701-0.41962-2.10975-1.29382-2.13306-2.82077c-0.04663-3.13549-0.04663-6.25932-0.02331-9.3948
			c0.01165-1.89994,0.71101-2.79746,2.55268-3.21708c1.93491-0.44293,3.90479-0.46624,5.83969,0.06993
			c1.58523,0.44293,2.16803,1.21223,2.27293,2.83242c0.05828,0.83924,0.01166,1.69013,0.01166,2.54103
			c0,0.09325-0.02331,0.18649-0.03497,0.31472c-1.09567,0-2.16803,0-3.32198,0c0-0.53618,0-1.0607,0-1.58522
			c-0.01165-0.87421-0.25643-1.21224-1.10733-1.29382c-0.65273-0.06993-1.3288-0.02331-1.99319,0.04663
			c-0.52452,0.04663-0.80427,0.41962-0.80427,0.93249c-0.01166,2.5993-0.01166,5.19861,0,7.79791
			c0,0.53617,0.2914,0.92083,0.8509,0.96746c0.66439,0.04663,1.34045,0.08158,1.99319,0.0233
			c0.78095-0.06993,1.04905-0.40796,1.0607-1.21223c0.01165-0.51287,0.01165-1.02574,0.02331-1.5386
			C103.66592,38.47874,103.67757,38.45542,103.72421,38.37383z"/>
	</g>
	<path class="st0" d="M45.01253,36.90516c-0.04663,2.71587-2.23797,4.87224-4.93052,4.82561
		c-2.76249-0.04663-4.87224-2.24963-4.81396-5.04708c0.04663-2.66924,2.24962-4.76734,4.95383-4.73236
		C42.92609,31.99796,45.05915,34.1893,45.01253,36.90516z"/>
</g>
</svg>
