<?xml version="1.0" encoding="utf-8"?>
<!-- Generator: Adobe Illustrator 23.0.2, SVG Export Plug-In . SVG Version: 6.00 Build 0)  -->
<svg version="1.1" id="Layer_1" xmlns="http://www.w3.org/2000/svg" xmlns:xlink="http://www.w3.org/1999/xlink" x="100px" y="100px"
	 viewBox="0 0 2000 2000" style="enable-background:new 0 0 2000 2000;" xml:space="preserve"
	 
   width="1917.38"
   height="1185.57996">
<style type="text/css">
	.st0{fill:#FF0012;}
	.st1{fill:#020081;}
</style>
<g>
	<path class="st0" d="M575.1,837.2c10.8,2,21.8,3.1,32.3,6.2c54.2,15.7,90.9,50.5,110.7,103.2c1,2.8,1.7,5.7,2.8,9.3
		c-14.3-4.2-27.8-4.3-41,0.6c-3.3,1.2-3.4-1.8-4.2-3.6c-11-24.9-28.2-44.3-51.8-57.9c-68.5-39.1-156.5-1.8-176.1,74.7
		c-17.6,68.6,27,138.3,96.8,149.2c47.6,7.5,86.6-9.1,116.6-46.9c0.9-1.2,1.8-2.4,2.7-3.6c0.2-0.2,0.5-0.4,1.2-0.8
		c12.1,8.1,25.7,11.9,41.3,11c-0.9,1.8-1.4,3.1-2.2,4.3c-24.8,40.4-60.2,66.2-106.5,76.3c-83.5,18.2-168.6-34.2-190.3-116.9
		c-22.5-85.6,25.1-171.7,109.6-197.9c10.1-3.1,20.8-4.3,31.2-6.3c1.8-0.4,3.6-0.6,5.4-1C560.8,837.2,568,837.2,575.1,837.2z"/>
	<path class="st1" d="M546.5,1019.3c0,10-0.2,19.1,0.1,28.2c0.2,4.9,4.2,6.5,8.2,6.6c8.8,0.3,17.6,0.2,26.4,0.1
		c4.7-0.1,7-3.2,7.1-7.6c0.2-5.9,0.1-11.8,0.1-18.1c11.8,0,23.2,0,34.6,0c0,11,0.9,22-0.4,32.7c-0.6,5.1-4.6,10.5-8.4,14.5
		c-6.5,6.8-15.2,10.5-24.5,10.7c-15.5,0.4-31.1,0.6-46.6-0.7c-19.6-1.7-30.4-14.7-30.4-34.3c0-32.8,0-65.6,0-98.4
		c0-14.7,4.9-23.2,18.7-28c24.8-8.5,50-9.8,74.7,0.5c11.4,4.7,17.8,13.7,17.8,26.5c0,22.3,0,44.6,0,67.4
		C598.2,1019.3,572.7,1019.3,546.5,1019.3z M546.4,988c14.4,0,28,0,41.8,0c0-9.6,0.3-18.8-0.1-28c-0.2-4.3-3.3-7.4-7.6-7.6
		c-8.6-0.4-17.2-0.3-25.8,0.2c-4.1,0.2-8.2,2.4-8.3,7.3C546.2,969.1,546.4,978.4,546.4,988z"/>
	<g>
		<path class="st1" d="M930.4,1064.9c-2.6,10.6-10.2,14.1-19.9,15.2c-9.7,1.1-19.2,0.9-28.6-2.2c-6.7-2.2-11.1-6.5-12.5-13.3
			c-1-4.9-2-10-2-15c-0.2-25.5-0.2-51.1,0-76.6c0-3.9,0.8-7.7,1.3-11.6c1.3-10.2,7.8-16.2,17.2-17.2c10.1-1.2,20.5-0.7,30.6,0.2
			c7.4,0.7,11.5,6.3,13.6,13.6c0-20.6,0-41.2,0-62.4c9.3,0,18-0.1,26.8,0.1c0.8,0,1.9,1.5,2.3,2.5c0.4,0.8,0.1,2,0.1,3
			c0,57.5,0,115,0,172.5c0,1.7,0,3.3,0,5.3c-9.9,0-19.2,0-28.9,0C930.4,1074.2,930.4,1069.6,930.4,1064.9z M930.3,1011.7
			C930.2,1011.7,930.2,1011.7,930.3,1011.7c0-10.6,0.1-21.3-0.1-31.9c-0.1-6.5-2.2-9.2-8.5-9.9c-5.3-0.6-10.8-0.7-16.1-0.1
			c-6.7,0.7-8.9,3.6-9.1,10.4c-0.1,5.1,0,10.1,0,15.2c0,15.2,0,30.4,0,45.6c0,9.7,1.9,11.9,11.6,12.9c4.2,0.4,8.4,0.2,12.6-0.3
			c7.4-0.9,9.5-3.4,9.6-11C930.3,1032.3,930.3,1022,930.3,1011.7z"/>
		<path class="st1" d="M1425.7,1066.4c0,15.3,0,30.6,0,46.4c-9.6,0-19,0-28.7,0c0-56.1,0-112.1,0-168.5c9.4,0,18.6,0,28.4,0
			c0,4.2,0,8.5,0,12.7c3.5-11,12.5-13.2,21.7-13.9c7.5-0.5,15.3-0.3,22.7,1c12.7,2.2,18.4,10.2,18.4,25.1c0.2,24.5,0.1,49,0,73.6
			c0,4.6,0.1,9.1-0.1,13.7c-0.8,13.6-7,21.3-20.4,23c-8.8,1.1-17.8,0.7-26.7-0.1C1433.7,1078.6,1428.3,1074,1425.7,1066.4z
			 M1425.7,1011.5c0,10.6-0.1,21.3,0,31.9c0.1,6.3,2.7,9.6,8.9,10.1c5.3,0.5,10.8,0.4,16.1-0.1c6-0.6,8.6-3.2,8.7-9.2
			c0.2-21.8,0.2-43.6,0-65.4c0-5.6-2.6-8.3-8.3-9c-5.2-0.6-10.5-0.8-15.6-0.3c-7.6,0.8-9.8,3.7-9.8,11.4
			C1425.7,991.2,1425.7,1001.3,1425.7,1011.5z"/>
		<path class="st1" d="M1597.1,1024c-21.1,0-41.5,0-62.1,0c0,8-0.5,15.6,0.3,23c0.2,2.3,3.9,5.7,6.3,6c6.4,0.8,13.1,0.7,19.6,0.2
			c5.4-0.4,6.9-4.9,7.2-9.6c0.2-3.7,0-7.4,0-11.3c9.7,0,18.9,0,29.7,0c-1,10.6-1.5,21-3,31.2c-0.9,6.2-6.3,9.7-11.6,11.8
			c-5.4,2.2-11.2,4.1-17,4.6c-13.8,1.4-27.7,1.9-41.2-2.2c-13.6-4.1-19.5-11.2-19.6-25.3c-0.3-27.2-0.3-54.4,0-81.7
			c0.1-14,5.7-21.4,19.1-25.1c17.7-5,35.8-5,53.5,0.1c13,3.7,18.3,10.3,18.7,23.8C1597.5,987.5,1597.1,1005.4,1597.1,1024z
			 M1568.3,999.2c0-7.3,0.2-14-0.1-20.7c-0.2-4.1-2.1-7.9-6.7-8.3c-6.7-0.5-13.4-0.7-20,0.1c-2.4,0.3-6,3.7-6.2,6
			c-0.8,7.4-0.3,15-0.3,22.8C1546,999.2,1556.8,999.2,1568.3,999.2z"/>
		<path class="st1" d="M855.2,1024.1c-21.2,0-41.7,0-62.4,0c0,7.7-0.3,15,0.1,22.2c0.2,3.9,2.9,6.8,6.9,7c6.5,0.4,13.1,0.4,19.6-0.1
			c4-0.3,6.3-3.2,6.6-7.2c0.4-4.4,0.5-8.7,0.7-13.5c9.3,0,18.5,0,28.3,0c0,10.9,2.1,22.3-2.6,32.6c-2,4.3-6.8,8-11.2,10.3
			c-5.1,2.6-11.1,4.1-16.9,4.7c-13.8,1.3-27.7,1.9-41.2-2.3c-13.4-4.2-19-10.6-19.2-24.5c-0.4-27.4-0.5-54.8-0.1-82.2
			c0.2-15.2,6.1-22.5,20.7-25.9c17.1-4.1,34.6-4.3,51.6,0.6c13.5,3.9,19,11.7,19.1,25.7C855.3,988.7,855.2,1005.9,855.2,1024.1z
			 M826,999.2c0-7.6,0.2-14.7-0.1-21.7c-0.1-4.2-2.7-7.1-6.9-7.4c-6.3-0.4-12.7-0.4-19.1,0c-4.3,0.2-6.9,3.3-7.1,7.3
			c-0.4,7.2-0.1,14.3-0.1,21.8C803.8,999.2,814.7,999.2,826,999.2z"/>
		<path class="st1" d="M1290.4,1011.4c0-12.3,0.1-24.7,0-37c-0.1-18.4,6-27.1,27.6-30.6c14-2.3,28.3-2.4,42.3,1
			c15.6,3.9,21.8,11.8,21.9,27.8c0.2,26,0.1,52,0,78.1c-0.1,15.8-5.8,23.6-20.9,27.4c-16.9,4.3-34.2,4.3-51.1-0.4
			c-13.6-3.8-19.3-11.2-19.6-25.3c-0.3-13.7-0.1-27.4-0.1-41.1C1290.5,1011.4,1290.4,1011.4,1290.4,1011.4z M1319.7,1011.2
			c0,11-0.1,22,0,32.9c0,5.7,2.4,8.7,7.9,9.2c5.5,0.5,11.1,0.6,16.6,0.1c6.3-0.5,8.9-3.3,9-9.5c0.2-21.6,0.2-43.3,0-64.9
			c-0.1-6-2.4-8.6-8.6-9.3c-5.5-0.6-11.1-0.6-16.6,0c-6.3,0.7-8.3,3.5-8.3,9.9C1319.6,990.2,1319.7,1000.7,1319.7,1011.2z"/>
		<path class="st1" d="M1080.3,1032.3c9.6,0,18.8,0,28.8,0c0,3.7-0.1,7.4,0,11c0.2,6.4,2.7,9.6,8.9,10.2c5.8,0.5,11.8,0.2,17.6-0.2
			c3.7-0.3,6.3-2.7,6.8-6.5c2-14.3-1.1-19-12.6-21.5c-8.7-1.9-17.4-4.3-26-6.5c-14.4-3.8-23.1-14.4-23.5-29.3
			c-0.2-8.6,0.3-17.2,0.9-25.7c0.5-8,5.8-12.9,12.6-15.8c5.1-2.1,10.5-4,16-4.5c14.5-1.4,29-2.2,43.2,2.3
			c12.9,4.2,18.6,11.9,18.7,25.5c0.1,6.4,0,12.8,0,19.5c-9.6,0-18.8,0-28.8,0c0-3.8,0.1-7.5,0-11.1c-0.3-6.3-2.4-9.2-8.6-9.8
			c-6-0.5-12.1-0.1-18.1,0.2c-1.5,0.1-3.2,1.1-4.4,2.3c-6.3,6.3-2.8,21.6,5.8,24.2c10,3,20.2,5.4,30.3,8
			c14.7,3.8,23.5,14.4,23.7,29.5c0.1,8.6-0.4,17.2-1,25.8c-0.5,7.1-4.9,12-11,14.7c-5.8,2.5-12,4.8-18.3,5.5
			c-14.3,1.6-28.7,2.1-42.7-2.5c-12.6-4.1-18-11.4-18.4-24.7C1080.2,1046,1080.3,1039.3,1080.3,1032.3z"/>
		<path class="st1" d="M970.3,944.2c9.7,0,18.9,0,28.8,0c0,2.1,0,4.1,0,6c0,30.3,0,60.5,0,90.8c0,9.5,2,12,11.6,12.8
			c4.8,0.4,9.8-0.1,14.6-0.5c4.7-0.5,7.1-3.5,7.4-8.2c0.1-2.2,0.2-4.4,0.2-6.6c0-29.4,0-58.9,0-88.3c0-1.8,0-3.7,0-5.9
			c9.7,0,19.1,0,28.8,0c0,44.8,0,89.5,0,134.7c-9.3,0-18.6,0-28.6,0c0-4.5,0-8.9,0-13.4c-3.9,13.1-14.5,14.5-25.4,14.9
			c-5.7,0.2-11.5-0.2-17.2-1c-11.8-1.7-17.6-7.5-19.7-19.2c-0.5-3-0.9-6-0.9-9.1c-0.1-34.5,0-69,0-103.5
			C970.1,946.8,970.2,945.8,970.3,944.2z"/>
		<path class="st1" d="M1246.4,1028.9c9.1,0,18.2,0,28.3,0c-0.7,12.4,2.1,25-3,36.9c-2.8,6.5-9,9.8-15.3,11.6
			c-18.2,5.2-36.7,5.3-55,0.1c-12.5-3.6-18.1-11.1-18.3-24.2c-0.4-26.9-0.4-53.7-0.2-80.6c0.1-16.3,6.1-24,21.9-27.6
			c16.6-3.8,33.5-4,50.1,0.6c13.6,3.8,18.6,10.4,19.5,24.3c0.5,7.2,0.1,14.5,0.1,21.8c0,0.8-0.2,1.6-0.3,2.7c-9.4,0-18.6,0-28.5,0
			c0-4.6,0-9.1,0-13.6c-0.1-7.5-2.2-10.4-9.5-11.1c-5.6-0.6-11.4-0.2-17.1,0.4c-4.5,0.4-6.9,3.6-6.9,8c-0.1,22.3-0.1,44.6,0,66.9
			c0,4.6,2.5,7.9,7.3,8.3c5.7,0.4,11.5,0.7,17.1,0.2c6.7-0.6,9-3.5,9.1-10.4c0.1-4.4,0.1-8.8,0.2-13.2
			C1245.9,1029.8,1246,1029.6,1246.4,1028.9z"/>
	</g>
	<path class="st0" d="M742.7,1016.3c-0.4,23.3-19.2,41.8-42.3,41.4c-23.7-0.4-41.8-19.3-41.3-43.3c0.4-22.9,19.3-40.9,42.5-40.6
		C724.8,974.2,743.1,993,742.7,1016.3z"/>
</g>
</svg>
